<svg width="48" height="48" viewBox="0 0 48 48" fill="none" xmlns="http://www.w3.org/2000/svg">
<path d="M39 6C35.685 6 33 8.685 33 12H30V15H39V12H36C36 10.2135 37.2135 9 39 9C40.7865 9 42 10.2135 42 12V21H1.5V24H3.282L5.577 35.391V35.4375C5.75095 36.2024 6.11804 36.91 6.64323 37.4927C7.16842 38.0754 7.83419 38.5138 8.577 38.766L7.5 42H10.5L11.484 39H36.516L37.5 42H40.5L39.4215 38.766C40.992 38.286 42.2115 37.026 42.5625 35.4375V35.391L44.7195 24H46.5V21H45V12C45 8.685 42.315 6 39 6ZM6.3285 24H41.718L39.609 34.8285C39.4335 35.478 38.883 36 38.109 36H10.032C9.228 36 8.6835 35.4675 8.532 34.7805L6.3285 24Z" fill="black"/>
</svg>
