<svg width="48" height="48" viewBox="0 0 48 48" fill="none" xmlns="http://www.w3.org/2000/svg">
<path d="M20.9942 5.82003C19.4262 6.09403 13.8942 7.48803 12.0242 11.732C10.9642 14.142 8.24716 18.428 6.61816 22.938C5.66657 25.7341 4.96613 28.6095 4.52516 31.53C4.46241 31.9209 4.51767 32.3216 4.68387 32.6809C4.85007 33.0402 5.11966 33.3418 5.45816 33.547C9.18134 35.6563 13.4061 36.7182 17.6842 36.62C26.4012 36.62 28.7512 34.763 28.7512 34.763C28.9032 35.597 32.7312 42.305 32.7312 42.305C41.6752 37.453 44.2902 27.259 43.3042 21.043C40.5752 21.839 38.5292 24.833 38.5292 24.833C38.5292 24.833 35.4212 22.293 32.7692 22.293C30.1172 22.293 23.9222 25.743 23.9222 25.743C23.5551 25.3333 23.0997 25.0124 22.5903 24.8045C22.081 24.5966 21.5311 24.5072 20.9822 24.543C18.9102 24.543 15.3482 26.955 15.3482 26.955C14.7598 24.3955 14.4169 21.7857 14.3242 19.161C14.4783 16.7754 15.2823 14.4774 16.6492 12.516C16.6492 12.516 19.9842 12.971 20.8932 12.288C21.2496 12.0545 21.5801 11.7836 21.8792 11.48C21.8792 11.48 24.4562 13.299 24.7592 11.43C24.8318 11.1709 24.8248 10.896 24.739 10.6409C24.6532 10.3858 24.4926 10.1625 24.2782 10C24.2782 10 25.4412 9.25603 24.1282 7.31003C22.8152 5.36403 22.0052 5.64303 20.9942 5.82003Z" stroke="black" stroke-linecap="round" stroke-linejoin="round"/>
</svg>
