<svg width="48" height="48" viewBox="0 0 48 48" fill="none" xmlns="http://www.w3.org/2000/svg">
<path d="M24 18C25.5913 18 27.1174 18.6321 28.2426 19.7574C29.3679 20.8826 30 22.4087 30 24C30 25.5913 29.3679 27.1174 28.2426 28.2426C27.1174 29.3679 25.5913 30 24 30C22.4087 30 20.8826 29.3679 19.7574 28.2426C18.6321 27.1174 18 25.5913 18 24C18 22.4087 18.6321 20.8826 19.7574 19.7574C20.8826 18.6321 22.4087 18 24 18ZM24 9C34 9 42.54 15.22 46 24C42.54 32.78 34 39 24 39C14 39 5.46 32.78 2 24C5.46 15.22 14 9 24 9ZM6.36 24C7.97651 27.3006 10.4866 30.0815 13.605 32.0265C16.7233 33.9715 20.3248 35.0026 24 35.0026C27.6752 35.0026 31.2767 33.9715 34.395 32.0265C37.5134 30.0815 40.0235 27.3006 41.64 24C40.0235 20.6994 37.5134 17.9185 34.395 15.9735C31.2767 14.0285 27.6752 12.9974 24 12.9974C20.3248 12.9974 16.7233 14.0285 13.605 15.9735C10.4866 17.9185 7.97651 20.6994 6.36 24Z" fill="black"/>
</svg>
