<svg width="32" height="40" viewBox="0 0 32 40" fill="none" xmlns="http://www.w3.org/2000/svg">
<path fill-rule="evenodd" clip-rule="evenodd" d="M27.5303 9.36183e-09C28.0927 -3.84685e-05 28.6488 0.118533 29.1623 0.347976C29.6758 0.577419 30.1352 0.912575 30.5104 1.33157C30.8856 1.75056 31.1682 2.24396 31.3398 2.77958C31.5114 3.3152 31.5681 3.88098 31.5063 4.44L27.9503 36.44C27.842 37.4188 27.3764 38.3232 26.6428 38.98C25.9092 39.6369 24.959 40.0001 23.9743 40H7.55427C6.56955 40.0001 5.6194 39.6369 4.88577 38.98C4.15214 38.3232 3.68659 37.4188 3.57827 36.44L0.0242741 4.44C-0.0375751 3.88115 0.0190899 3.31553 0.190573 2.78006C0.362056 2.24458 0.644504 1.75127 1.01949 1.33231C1.39448 0.913351 1.85358 0.578155 2.36685 0.348588C2.88011 0.119021 3.43601 0.00024267 3.99827 9.36183e-09H27.5303ZM17.7643 26C17.2338 26 16.7251 26.2107 16.3501 26.5858C15.975 26.9609 15.7643 27.4696 15.7643 28C15.7643 28.5304 15.975 29.0391 16.3501 29.4142C16.7251 29.7893 17.2338 30 17.7643 30C18.2947 30 18.8034 29.7893 19.1785 29.4142C19.5536 29.0391 19.7643 28.5304 19.7643 28C19.7643 27.4696 19.5536 26.9609 19.1785 26.5858C18.8034 26.2107 18.2947 26 17.7643 26ZM11.7643 20C11.2338 20 10.7251 20.2107 10.3501 20.5858C9.97499 20.9609 9.76427 21.4696 9.76427 22C9.76427 22.5304 9.97499 23.0391 10.3501 23.4142C10.7251 23.7893 11.2338 24 11.7643 24C12.2947 24 12.8034 23.7893 13.1785 23.4142C13.5536 23.0391 13.7643 22.5304 13.7643 22C13.7643 21.4696 13.5536 20.9609 13.1785 20.5858C12.8034 20.2107 12.2947 20 11.7643 20ZM27.5303 4H3.99827L4.84827 11.646L5.22227 11.58C5.74227 11.492 6.34427 11.42 7.02227 11.38C9.27827 11.246 12.3483 11.494 15.8823 12.886L16.5523 13.162C19.5363 14.442 22.0823 14.706 23.9143 14.644L26.3623 14.508L27.5303 4Z" fill="black"/>
</svg>
