<svg width="48" height="45" viewBox="0 0 48 45" fill="none" xmlns="http://www.w3.org/2000/svg">
<path d="M15.1266 0C16.1301 1.00631 16.7913 2.21981 17.1711 3.53034C17.7877 5.65912 17.7484 8.04422 17.541 10.4767C17.1257 15.3417 16.0912 20.4622 17.2983 23.6398C18.4315 26.6224 20.2483 28.3939 22.264 29.2648C23.131 29.6396 24.0438 29.847 24.9671 29.9006C27.174 23.799 26.7032 16.0121 23.0719 10.7491C27.8797 15.271 30.1505 22.0992 28.6835 29.256L27.8105 29.5869C28.083 29.5102 28.3516 29.4213 28.6152 29.3204C32.7697 27.7388 36.1695 23.1092 34.7551 16.3215C34.1052 13.2029 31.8749 8.80603 28.1429 5.39962C24.9141 2.45287 20.6034 0.223312 15.1266 0ZM43.3619 17.2062C43.2784 18.3406 42.9007 19.412 42.3119 20.385C41.2825 22.0856 39.6821 23.5497 37.9492 24.9406C34.4834 27.7222 30.4862 30.299 29.1681 32.9298C27.9197 35.4219 27.887 37.5472 28.553 39.2376C28.8376 39.961 29.2634 40.6277 29.8084 41.2033C35.1486 38.692 39.9235 33.618 41.1247 28.263C41.1322 33.8548 38.0791 39.3899 32.5115 42.9729C36.0714 44.3365 41.0907 43.4449 44.6143 38.4964C46.2468 36.2036 47.7522 32.187 47.678 27.9143C47.615 24.2873 46.4585 20.4862 43.3619 17.2062ZM1.11591 24.094C0.173002 28.3951 1.18631 32.2345 3.05483 35.4055C5.25586 39.1405 8.69083 41.9095 11.3201 43.1252C16.9947 45.7491 21.8116 44.1534 24.1717 41.2943C17.4511 40.8161 11.8727 37.4624 8.91525 32.6165C12.7951 36.6878 19.6199 38.8312 25.5762 38.4876C25.7438 37.7324 25.7597 36.9543 25.623 36.1937C25.3034 34.4157 24.1444 32.5893 21.7419 31.0198C19.2059 29.3632 14.3795 29.0173 9.9033 28.2425C7.66529 27.8553 5.50374 27.3434 3.71069 26.3558C2.68425 25.7905 1.79006 25.0376 1.11591 24.094Z" fill="black"/>
</svg>
