<svg width="48" height="48" viewBox="0 0 48 48" fill="none" xmlns="http://www.w3.org/2000/svg">
<path d="M18.0436 5.109C12.6555 6.15488 8.31497 8.85272 4.40353 12.1639C8.53491 11.7451 13.5916 11.4604 17.4513 11.3084C19.7069 11.9493 22.2082 12.5164 24.0006 12.5164C25.793 12.5164 28.2943 11.9493 30.5499 11.3084C34.4095 11.4603 39.4662 11.7451 43.5976 12.1639C39.7705 9.14541 34.9938 5.502 29.9575 5.109C27.6402 5.45156 25.6914 6.84328 24.0006 8.14406C22.5518 7.07981 19.7739 5.07938 18.0436 5.109ZM18.2257 13.1418C17.2191 13.4207 16.1757 14.5276 15.7967 15.6081C14.4204 19.5313 15.8036 24.0703 17.3009 28.5621C18.6582 32.634 21.3738 34.4771 24.0006 34.4771C26.6274 34.4771 29.3429 32.634 30.7002 28.5621C32.1974 24.0703 33.5806 19.5313 32.2044 15.6081C31.8254 14.5276 30.7821 13.4207 29.7754 13.1418C27.8993 12.9689 26.4443 14.2897 24.7942 14.6001L24.0006 29.7664L23.207 14.6001C21.698 14.3454 19.476 12.8407 18.2257 13.1418ZM3.70312 14.2556C6.34706 17.4731 10.166 20.8133 13.7747 22.075C13.5958 19.4493 13.4643 16.9316 14.2775 14.8579C11.2146 14.7207 6.96084 14.5204 3.70312 14.2556ZM44.298 14.2556C41.0402 14.5205 36.7866 14.7207 33.7237 14.8579C34.4988 17.1795 34.5434 20.038 34.2264 22.075C38.3716 20.2082 41.6463 17.5941 44.298 14.2556ZM16.5006 32.5789C16.5006 32.5789 13.4064 34.2115 12.9517 35.7259C12.7482 36.4031 12.8882 37.4214 13.5006 37.775C14.1129 38.1285 15.0647 37.7407 15.5495 37.2259C16.6335 36.0748 16.5006 32.5789 16.5006 32.5789ZM31.5006 32.5789C31.5006 32.5789 31.3676 36.0748 32.4517 37.2259C32.9363 37.7406 33.8882 38.1286 34.5006 37.775C35.1129 37.4215 35.2529 36.4031 35.0495 35.7259C34.5948 34.2115 31.5006 32.5789 31.5006 32.5789ZM24.0006 36.8914C24.0006 36.8914 22.1373 39.8525 22.5006 41.3914C22.663 42.0795 23.2935 42.8914 24.0006 42.8914C24.7076 42.8914 25.3381 42.0795 25.5006 41.3914C25.8638 39.8525 24.0006 36.8914 24.0006 36.8914Z" fill="black"/>
</svg>
