<svg width="48" height="48" viewBox="0 0 48 48" fill="none" xmlns="http://www.w3.org/2000/svg">
<path d="M21.8257 22.569C21.4728 22.7309 21.0891 22.8149 20.7007 22.815C20.3124 22.8153 19.9288 22.7309 19.5764 22.5677C19.2241 22.4045 18.9116 22.1664 18.6607 21.87C18.6156 21.8258 18.5802 21.7727 18.557 21.7139C18.5337 21.6552 18.5231 21.5922 18.5258 21.5291C18.5285 21.466 18.5444 21.4042 18.5726 21.3477C18.6007 21.2911 18.6405 21.2412 18.6892 21.201C18.7379 21.1609 18.7945 21.1315 18.8552 21.1146C18.916 21.0978 18.9797 21.0939 19.042 21.1032C19.1044 21.1126 19.1641 21.1349 19.2173 21.1688C19.2705 21.2027 19.3159 21.2474 19.3507 21.3C19.5191 21.4925 19.7266 21.647 19.9594 21.753C20.1922 21.8591 20.4449 21.9143 20.7007 21.915C20.9594 21.9184 21.2156 21.8652 21.4515 21.7589C21.6873 21.6527 21.897 21.496 22.0657 21.3C22.1076 21.2488 22.1602 21.2075 22.2198 21.179C22.2795 21.1505 22.3446 21.1355 22.4107 21.135C22.4944 21.1383 22.5754 21.1649 22.6448 21.2118C22.7141 21.2587 22.769 21.324 22.8033 21.4003C22.8376 21.4767 22.8499 21.5611 22.8388 21.6441C22.8278 21.727 22.7938 21.8053 22.7407 21.87C22.4895 22.1661 22.1774 22.4045 21.8257 22.569ZM29.6707 22.569C29.3178 22.7309 28.9341 22.8149 28.5457 22.815C28.1574 22.8153 27.7738 22.7309 27.4214 22.5677C27.0691 22.4045 26.7566 22.1664 26.5057 21.87C26.4606 21.8258 26.4252 21.7727 26.402 21.7139C26.3787 21.6552 26.3681 21.5922 26.3708 21.5291C26.3735 21.466 26.3894 21.4042 26.4176 21.3477C26.4457 21.2911 26.4855 21.2412 26.5342 21.201C26.5829 21.1609 26.6395 21.1315 26.7002 21.1146C26.761 21.0978 26.8247 21.0939 26.887 21.1032C26.9494 21.1126 27.0091 21.1349 27.0623 21.1688C27.1155 21.2027 27.1609 21.2474 27.1957 21.3C27.3641 21.4925 27.5716 21.647 27.8044 21.753C28.0372 21.8591 28.2899 21.9143 28.5457 21.915C28.8044 21.9184 29.0606 21.8652 29.2965 21.7589C29.5323 21.6527 29.742 21.496 29.9107 21.3C29.9526 21.2488 30.0052 21.2075 30.0648 21.179C30.1245 21.1505 30.1896 21.1355 30.2557 21.135C30.3413 21.1341 30.4252 21.1581 30.4972 21.2042C30.5693 21.2503 30.6263 21.3164 30.6614 21.3945C30.6964 21.4725 30.7079 21.559 30.6945 21.6435C30.681 21.728 30.6432 21.8067 30.5857 21.87C30.3345 22.1661 30.0224 22.4045 29.6707 22.569ZM25.2907 25.53C25.43 25.5287 25.5671 25.4952 25.6913 25.4319C25.8154 25.3687 25.9231 25.2775 26.006 25.1655C26.0889 25.0535 26.1446 24.9239 26.1689 24.7867C26.1931 24.6495 26.1852 24.5086 26.1457 24.375L25.2757 21.57C25.2338 21.4357 25.1501 21.3183 25.0367 21.235C24.9234 21.1517 24.7864 21.1067 24.6457 21.1067C24.5051 21.1067 24.3681 21.1517 24.2547 21.235C24.1414 21.3183 24.0577 21.4357 24.0157 21.57L23.1457 24.375C23.1063 24.5086 23.0983 24.6495 23.1226 24.7867C23.1468 24.9239 23.2026 25.0535 23.2855 25.1655C23.3684 25.2775 23.4761 25.3687 23.6002 25.4319C23.7243 25.4952 23.8614 25.5287 24.0007 25.53H25.2907ZM24.6307 27.195C25.4874 27.1987 26.332 26.9927 27.0907 26.595C27.1427 26.5672 27.2022 26.5572 27.2603 26.5665C27.3185 26.5757 27.372 26.6037 27.4128 26.6461C27.4535 26.6886 27.4793 26.7432 27.4862 26.8017C27.493 26.8602 27.4806 26.9193 27.4507 26.97C26.9893 27.679 26.278 28.1885 25.4582 28.3972C24.6384 28.6059 23.77 28.4986 23.0257 28.0965C22.5315 27.8304 22.1133 27.4427 21.8107 26.97C21.7809 26.9193 21.7685 26.8602 21.7753 26.8017C21.7822 26.7432 21.8079 26.6886 21.8487 26.6461C21.8895 26.6037 21.943 26.5757 22.0011 26.5665C22.0593 26.5572 22.1188 26.5672 22.1707 26.595C22.9273 26.9986 23.7733 27.205 24.6307 27.195Z" fill="black"/>
<path d="M40.2455 37.173C41.7593 39.3698 42.7787 41.8687 43.2335 44.4975C43.3066 44.9279 43.2849 45.369 43.1699 45.7901C43.055 46.2112 42.8495 46.6022 42.5678 46.9357C42.2862 47.2692 41.9351 47.5372 41.5392 47.721C41.1433 47.9048 40.712 48.0001 40.2755 48H9.00047C8.34173 47.9994 7.70132 47.783 7.17717 47.384C6.65302 46.985 6.27397 46.4253 6.09797 45.7905C5.98291 45.3687 5.9614 44.9269 6.03497 44.496C6.49144 41.8671 7.51086 39.368 9.02338 37.1699C10.5359 34.9718 12.5058 33.1267 14.798 31.761C14.1033 30.6219 13.6775 29.3394 13.553 28.011V27.9315L13.475 26.8305C12.7259 26.34 12.1025 25.6803 11.6551 24.9046C11.2078 24.129 10.9489 23.2591 10.8995 22.365C10.6265 21.7511 10.4855 21.0868 10.4855 20.415L10.4705 3C10.4705 2.20435 10.7865 1.44129 11.3492 0.87868C11.9118 0.316071 12.6748 0 13.4705 0L18.5255 0C19.3211 0 20.0842 0.316071 20.6468 0.87868C21.2094 1.44129 21.5255 2.20435 21.5255 3V4.5H21.8375C22.6922 4.50169 23.5371 4.68151 24.3185 5.028C24.5504 5.08778 24.7949 5.07681 25.0205 4.9965C25.8959 4.68917 26.8252 4.5656 27.7505 4.6335V3C27.7505 2.20435 28.0665 1.44129 28.6292 0.87868C29.1918 0.316071 29.9548 0 30.7505 0L35.8055 0C36.6011 0 37.3642 0.316071 37.9268 0.87868C38.4894 1.44129 38.8055 2.20435 38.8055 3L38.7905 20.4C38.792 21.072 38.651 21.7365 38.3765 22.35C38.3308 23.2485 38.073 24.1234 37.6244 24.9032C37.1757 25.683 36.5488 26.3455 35.795 26.8365L35.717 27.9375V28.017C35.5915 29.3456 35.1647 30.6282 34.469 31.767C36.761 33.132 38.7335 34.977 40.2455 37.173ZM35.8055 3H30.7505L30.7475 8.022C30.7435 8.369 30.6905 8.708 30.5885 9.039L30.602 9.0525C30.596 9.0735 30.5875 9.094 30.5765 9.114L30.554 9.1665L30.539 9.219C30.535 9.24 30.5295 9.261 30.5225 9.282L30.5105 9.27C30.3396 9.76895 30.0634 10.2253 29.7005 10.608L26.981 13.3365C26.7801 13.5306 26.6295 13.7707 26.5422 14.0361C26.4548 14.3014 26.4333 14.584 26.4795 14.8595C26.5257 15.135 26.6382 15.3951 26.8074 15.6174C26.9766 15.8397 27.1973 16.0175 27.4505 16.1355C27.6575 16.23 27.881 16.281 28.1075 16.287C28.3391 16.2976 28.5703 16.2593 28.7862 16.1745C29.002 16.0897 29.1975 15.9604 29.36 15.795L30.3245 14.8155C30.4946 14.6478 30.7104 14.534 30.9449 14.4884C31.1794 14.4428 31.4221 14.4674 31.6427 14.5592C31.8632 14.651 32.0518 14.8058 32.1847 15.0043C32.3177 15.2028 32.3891 15.4361 32.39 15.675V20.4645C32.3893 20.6936 32.4351 20.9204 32.5246 21.1313C32.614 21.3422 32.7453 21.5328 32.9105 21.6915C33.251 22.005 33.698 22.1775 34.16 22.1745C34.3869 22.1656 34.6095 22.11 34.8139 22.0112C35.0183 21.9123 35.2001 21.7723 35.348 21.6V21.579C35.6326 21.2521 35.7897 20.8335 35.7905 20.4L35.8055 3ZM30.182 17.0505C30.43 17.1615 30.6665 17.2935 30.8915 17.4465V16.3785L30.41 16.8675C30.3667 16.9077 30.3211 16.9452 30.2735 16.98L30.182 17.0505ZM18.5255 8.025V3H13.4705L13.4915 14.5395V20.4255C13.4925 20.4525 13.4975 20.4785 13.5065 20.5035C13.5135 20.5305 13.518 20.557 13.52 20.583C13.532 20.751 13.567 20.915 13.625 21.075C13.663 21.15 13.706 21.222 13.754 21.291C13.892 21.5428 14.0917 21.7555 14.3344 21.9089C14.5771 22.0624 14.8548 22.1517 15.1415 22.1685C15.605 22.1715 16.0505 21.999 16.391 21.6855C16.5561 21.5268 16.6874 21.3362 16.7769 21.1253C16.8663 20.9144 16.9121 20.6876 16.9115 20.4585V15.6735C16.9131 15.4349 16.9849 15.2021 17.1179 15.0041C17.251 14.806 17.4394 14.6516 17.6597 14.5599C17.8799 14.4682 18.1223 14.4435 18.3566 14.4886C18.5908 14.5338 18.8066 14.647 18.977 14.814L19.9415 15.7935C20.104 15.9589 20.2995 16.0882 20.5153 16.173C20.7311 16.2578 20.9624 16.2961 21.194 16.2855C21.4208 16.2795 21.6441 16.2277 21.8503 16.1331C22.0566 16.0385 22.2415 15.903 22.394 15.735C22.6959 15.4038 22.8571 14.9681 22.8433 14.5201C22.8296 14.0722 22.6421 13.6471 22.3205 13.335L19.5935 10.608C19.2228 10.2182 18.9422 9.75167 18.7715 9.2415L18.7445 9.2685C18.5988 8.87014 18.5246 8.44916 18.5255 8.025ZM18.4055 17.421C18.6285 17.275 18.8615 17.1485 19.1045 17.0415L19.031 16.9845C18.9804 16.9461 18.9323 16.9045 18.887 16.86L18.4055 16.371V17.421ZM14.3555 23.55C14.4265 23.66 14.5045 23.764 14.5895 23.862C15.0395 24.3615 15.6605 24.678 16.331 24.7485L16.541 27.7185C16.607 28.521 16.8485 29.2995 17.2505 29.9985C17.3195 30.1175 17.3935 30.2315 17.4725 30.3405L17.51 30.396L17.5505 30.456C17.6035 30.532 17.656 30.605 17.708 30.675C17.764 30.745 17.8225 30.8135 17.8835 30.8805L17.9255 30.927C18.0415 31.058 18.163 31.1825 18.29 31.3005L18.455 31.4505C18.625 31.5945 18.803 31.7275 18.989 31.8495L19.076 31.9095C19.2137 31.9952 19.3548 32.0752 19.499 32.1495V32.142L21.551 32.637C21.727 32.679 21.905 32.714 22.085 32.742H27.296C27.6123 32.6932 27.9246 32.6216 28.2305 32.5275L30.134 31.9395C30.2323 31.8778 30.3289 31.8133 30.4235 31.746C30.8144 31.4802 31.1675 31.1628 31.4735 30.8025L31.487 30.789C32.2131 29.9212 32.6499 28.8482 32.7365 27.72L32.9465 24.75C33.6172 24.6795 34.2381 24.3631 34.6895 23.862C34.7705 23.767 34.844 23.667 34.91 23.562C34.6831 23.6257 34.4495 23.6625 34.214 23.6715H34.1105C33.2588 23.6707 32.4423 23.3321 31.8399 22.7301C31.2376 22.128 30.8987 21.3116 30.8975 20.46V18.9315C30.7481 19.043 30.5678 19.1054 30.3815 19.11C30.1821 19.11 29.9879 19.047 29.8265 18.93C29.1975 18.5187 28.4411 18.3482 27.6965 18.45C27.5762 18.4646 27.4542 18.4552 27.3376 18.4223C27.221 18.3893 27.112 18.3336 27.0172 18.2582C26.9223 18.1829 26.8433 18.0894 26.7848 17.9833C26.7263 17.8772 26.6895 17.7605 26.6765 17.64C26.6735 17.5665 26.6796 17.493 26.6945 17.421C26.2717 17.2065 25.9022 16.9001 25.6132 16.5243C25.3242 16.1484 25.123 15.7126 25.0243 15.2489C24.9256 14.7852 24.932 14.3052 25.043 13.8443C25.1539 13.3833 25.3666 12.9531 25.6655 12.585L25.3325 12.573C25.0936 12.5626 24.8546 12.5566 24.6155 12.555C24.3845 12.555 24.173 12.564 23.963 12.573L23.6375 12.5865C23.938 12.9573 24.1512 13.391 24.2612 13.8554C24.3713 14.3198 24.3754 14.8031 24.2733 15.2693C24.1711 15.7355 23.9653 16.1728 23.6712 16.5486C23.377 16.9245 23.002 17.2293 22.574 17.4405C22.589 17.5065 22.5945 17.573 22.5905 17.64C22.5593 17.8812 22.4353 18.1007 22.2448 18.252C22.0544 18.4032 21.8125 18.4743 21.5705 18.45C20.8241 18.3554 20.0686 18.5309 19.4405 18.945C19.2811 19.0529 19.0929 19.1104 18.9005 19.11C18.7231 19.106 18.5509 19.0496 18.4055 18.948V20.46C18.4039 21.3114 18.0648 22.1274 17.4625 22.7291C16.8602 23.3309 16.0439 23.6692 15.1925 23.67H15.089C14.8404 23.6606 14.5941 23.6202 14.3555 23.55ZM30.1985 33.603L30.17 34.0545C30.0808 35.3662 29.5028 36.5967 28.5503 37.5029C27.5977 38.4091 26.3399 38.925 25.0254 38.9488C23.7109 38.9725 22.4353 38.5023 21.4507 37.6311C20.4661 36.76 19.844 35.5511 19.7075 34.2435L19.667 33.84C19.244 33.691 18.8366 33.5011 18.4505 33.273C16.0159 34.2747 13.8734 35.8746 12.2215 37.9246C10.5696 39.9745 9.46174 42.4081 9.00047 45H40.2755C39.8148 42.4086 38.7085 39.9751 37.0586 37.9244C35.4087 35.8737 33.2686 34.2719 30.836 33.267C30.629 33.39 30.4165 33.502 30.1985 33.603ZM27.5015 34.2285C27.0976 34.2917 26.6892 34.3218 26.2805 34.3185H23.1005C22.6958 34.3182 22.2917 34.2881 21.8915 34.2285C21.664 34.2263 21.4368 34.2138 21.2105 34.191C21.322 35.1078 21.768 35.9512 22.4631 36.5594C23.1582 37.1676 24.0533 37.4978 24.9768 37.4866C25.9003 37.4755 26.7872 37.1238 27.4674 36.499C28.1476 35.8742 28.5731 35.0203 28.6625 34.101C28.2805 34.176 27.8935 34.2185 27.5015 34.2285Z" fill="black"/>
</svg>
