<svg width="48" height="48" viewBox="0 0 48 48" fill="none" xmlns="http://www.w3.org/2000/svg">
<g clip-path="url(#clip0_506_1318)">
<path d="M20.0623 19.5H28.0623M24.0623 15.5V23.5M7.4383 46.5L3.7463 41.884C2.57851 40.421 1.94367 38.6039 1.9463 36.732V27.25C1.94629 26.522 2.23493 25.8238 2.74892 25.3083C3.26292 24.7928 3.96034 24.5021 4.6883 24.5C5.41748 24.5005 6.11665 24.7904 6.63226 25.306C7.14787 25.8217 7.43777 26.5208 7.4383 27.25V34.354M34.0623 21.5C34.0623 24.1522 33.0087 26.6957 31.1334 28.5711C29.258 30.4464 26.7145 31.5 24.0623 31.5C21.4101 31.5 18.8666 30.4464 16.9912 28.5711C15.1159 26.6957 14.0623 24.1522 14.0623 21.5C14.0623 14 24.0623 1.5 24.0623 1.5C24.0623 1.5 34.0623 14 34.0623 21.5Z" stroke="black" stroke-width="3" stroke-linecap="round" stroke-linejoin="round"/>
<path d="M15.6879 46.25V40.75C15.6873 39.1198 15.2043 37.5262 14.2999 36.17L12.1999 33.032C12.0211 32.734 11.7837 32.4754 11.5021 32.2719C11.2205 32.0683 10.9005 31.924 10.5615 31.8478C10.2225 31.7715 9.87159 31.7648 9.52994 31.8281C9.18828 31.8914 8.86302 32.0233 8.57385 32.216C8.05375 32.5635 7.67825 33.0888 7.51772 33.6933C7.35719 34.2979 7.42266 34.9403 7.70185 35.5L10.1819 39.626M40.5619 46.5L44.2539 41.884C45.4219 40.42 46.0559 38.604 46.0539 36.732V27.25C46.0539 26.5207 45.7641 25.8212 45.2484 25.3055C44.7327 24.7897 44.0332 24.5 43.3039 24.5C42.5747 24.5005 41.8755 24.7904 41.3599 25.306C40.8443 25.8217 40.5544 26.5208 40.5539 27.25V34.354" stroke="black" stroke-width="3" stroke-linecap="round" stroke-linejoin="round"/>
<path d="M32.3125 46.25V40.75C32.3125 39.12 32.7965 37.526 33.7005 36.17L35.8005 33.032C35.9795 32.7343 36.2169 32.4759 36.4985 32.2725C36.7802 32.0691 37.1001 31.9249 37.439 31.8487C37.7779 31.7724 38.1288 31.7656 38.4704 31.8288C38.812 31.8919 39.1372 32.0236 39.4265 32.216C39.9463 32.5638 40.3215 33.0891 40.482 33.6935C40.6425 34.298 40.5773 34.9402 40.2985 35.5L37.8185 39.626" stroke="black" stroke-width="3" stroke-linecap="round" stroke-linejoin="round"/>
</g>
<defs>
<clipPath id="clip0_506_1318">
<rect width="48" height="48" fill="white"/>
</clipPath>
</defs>
</svg>
