<svg width="48" height="48" viewBox="0 0 48 48" fill="none" xmlns="http://www.w3.org/2000/svg">
<path d="M12.2695 30.1725C11.925 30.3714 11.6737 30.699 11.5707 31.0833C11.4677 31.4675 11.5216 31.877 11.7205 32.2215C12.133 32.9415 13.0555 33.186 13.768 32.772C14.0961 32.5648 14.3312 32.2386 14.4241 31.8619C14.517 31.4852 14.4604 31.0871 14.2663 30.7512C14.0721 30.4152 13.7554 30.1675 13.3826 30.0599C13.0098 29.9523 12.6099 29.9932 12.2665 30.174L12.2695 30.1725ZM13.7695 18.3585C13.5991 18.2599 13.4108 18.1958 13.2156 18.17C13.0203 18.1442 12.8219 18.157 12.6317 18.2079C12.4414 18.2587 12.263 18.3465 12.1067 18.4663C11.9503 18.5861 11.8191 18.7355 11.7205 18.906C11.622 19.0765 11.5579 19.2647 11.5321 19.4599C11.5062 19.6552 11.5191 19.8536 11.5699 20.0439C11.6208 20.2341 11.7086 20.4125 11.8284 20.5689C11.9482 20.7252 12.0976 20.8564 12.268 20.955C12.4385 21.0535 12.6268 21.1174 12.822 21.1432C13.0172 21.1689 13.2155 21.156 13.4057 21.1051C13.5959 21.0542 13.7742 20.9663 13.9305 20.8465C14.0867 20.7266 14.2178 20.5772 14.3163 20.4067C14.4148 20.2362 14.4787 20.048 14.5045 19.8528C14.5302 19.6576 14.5173 19.4593 14.4664 19.2691C14.4155 19.0789 14.3276 18.9006 14.2078 18.7443C14.088 18.5881 13.9385 18.457 13.768 18.3585H13.7695ZM12.937 25.563C12.937 25.1652 12.779 24.7836 12.4977 24.5023C12.2164 24.221 11.8349 24.063 11.437 24.063C11.0392 24.063 10.6577 24.221 10.3764 24.5023C10.0951 24.7836 9.93705 25.1652 9.93705 25.563C9.93705 25.9608 10.0951 26.3423 10.3764 26.6236C10.6577 26.9049 11.0392 27.063 11.437 27.063C11.8349 27.063 12.2164 26.9049 12.4977 26.6236C12.779 26.3423 12.937 25.9608 12.937 25.563ZM24.4675 5.93398V4.54498H25.9675C26.1665 4.54498 26.3572 4.46597 26.4979 4.32531C26.6385 4.18466 26.7175 3.9939 26.7175 3.79498V3.04498C26.7175 2.63398 26.38 2.29498 25.9675 2.29498H20.53C20.1175 2.29498 19.78 2.63398 19.78 3.04498V3.79498C19.78 3.9939 19.8591 4.18466 19.9997 4.32531C20.1404 4.46597 20.3311 4.54498 20.53 4.54498H22.03V5.93548C11.728 6.57148 3.56505 15.1005 3.56055 25.563C3.56355 36.438 12.376 45.249 23.2495 45.2535C34.1245 45.2475 42.9355 36.4335 42.937 25.5615C42.937 15.099 34.771 6.56848 24.4675 5.93398ZM23.2495 40.749C19.2234 40.743 15.3639 39.141 12.5169 36.2941C9.67002 33.4472 8.068 29.5876 8.06205 25.5615C8.068 21.5353 9.67002 17.6758 12.5169 14.8289C15.3639 11.982 19.2234 10.3799 23.2495 10.374C27.2754 10.3803 31.1346 11.9825 33.9812 14.8294C36.8278 17.6763 38.4296 21.5356 38.4355 25.5615C38.4304 29.5875 36.8288 33.4471 33.982 36.2939C31.1352 39.1407 27.2755 40.7438 23.2495 40.749ZM18.0925 34.494C17.7489 34.3111 17.3476 34.2688 16.9734 34.3761C16.5991 34.4834 16.2812 34.7318 16.0866 35.069C15.8921 35.4062 15.8361 35.8058 15.9304 36.1835C16.0248 36.5612 16.2622 36.8875 16.5925 37.0935C16.9369 37.2893 17.3447 37.3409 17.7269 37.2371C18.1092 37.1333 18.4349 36.8826 18.633 36.5395C18.831 36.1965 18.8853 35.789 18.7841 35.4061C18.6829 35.0232 18.4343 34.6943 18.0925 34.494ZM18.0925 16.629C18.2718 16.5352 18.4302 16.4061 18.5583 16.2496C18.6864 16.093 18.7815 15.9121 18.8379 15.7178C18.8942 15.5235 18.9107 15.3198 18.8863 15.119C18.8619 14.9182 18.7972 14.7243 18.6959 14.5492C18.5947 14.374 18.459 14.2212 18.2972 14.0998C18.1353 13.9784 17.9506 13.8911 17.7541 13.8429C17.5576 13.7948 17.3534 13.7869 17.1538 13.8197C16.9542 13.8526 16.7633 13.9255 16.5925 14.034C16.2609 14.2392 16.0222 14.5654 15.927 14.9437C15.8319 15.3219 15.8878 15.7223 16.0829 16.0599C16.278 16.3976 16.5969 16.6461 16.9721 16.7526C17.3472 16.8591 17.7491 16.8138 18.0925 16.629ZM34.2325 20.955C34.4894 20.8065 34.6965 20.5852 34.8276 20.319C34.9587 20.0528 35.0079 19.7538 34.969 19.4596C34.9301 19.1655 34.8048 18.8895 34.609 18.6666C34.4133 18.4436 34.1558 18.2837 33.8691 18.2072C33.5825 18.1306 33.2796 18.1407 32.9987 18.2363C32.7178 18.3319 32.4716 18.5086 32.2912 18.7441C32.1107 18.9797 32.0042 19.2634 31.985 19.5595C31.9659 19.8556 32.035 20.1507 32.1835 20.4075C32.5975 21.123 33.5155 21.3675 34.2325 20.955ZM23.2525 35.88C23.0501 35.8707 22.8479 35.9026 22.6582 35.9736C22.4684 36.0446 22.295 36.1534 22.1484 36.2933C22.0018 36.4332 21.8851 36.6013 21.8053 36.7876C21.7255 36.9738 21.6842 37.1743 21.684 37.3769C21.6838 37.5795 21.7246 37.7801 21.8041 37.9665C21.8835 38.1529 21.9999 38.3213 22.1462 38.4615C22.2925 38.6017 22.4657 38.7108 22.6554 38.7822C22.845 38.8536 23.0471 38.8858 23.2495 38.877C23.6354 38.8601 23.9999 38.695 24.2671 38.4162C24.5343 38.1373 24.6836 37.7661 24.684 37.3799C24.6844 36.9937 24.5358 36.6222 24.2691 36.3428C24.0025 36.0634 23.6384 35.8976 23.2525 35.88ZM29.9065 14.0325C29.7354 13.9229 29.5437 13.8492 29.3432 13.8159C29.1427 13.7826 28.9376 13.7903 28.7401 13.8386C28.5427 13.8869 28.3572 13.9748 28.1947 14.097C28.0323 14.2191 27.8963 14.373 27.7951 14.5492C27.6938 14.7255 27.6294 14.9204 27.6058 15.1223C27.5821 15.3242 27.5997 15.5287 27.6574 15.7236C27.7151 15.9185 27.8118 16.0996 27.9416 16.256C28.0714 16.4124 28.2316 16.5408 28.4125 16.6335C28.7552 16.8035 29.1498 16.8364 29.5158 16.7253C29.8818 16.6143 30.1917 16.3678 30.3821 16.0361C30.5725 15.7044 30.6292 15.3125 30.5406 14.9404C30.4519 14.5684 30.2246 14.2442 29.905 14.034L29.9065 14.0325ZM35.0665 24.063C34.6687 24.063 34.2872 24.221 34.0059 24.5023C33.7246 24.7836 33.5665 25.1652 33.5665 25.563C33.5665 25.9608 33.7246 26.3423 34.0059 26.6236C34.2872 26.9049 34.6687 27.063 35.0665 27.063C35.4644 27.063 35.8459 26.9049 36.1272 26.6236C36.4085 26.3423 36.5665 25.9608 36.5665 25.563C36.5665 25.1652 36.4085 24.7836 36.1272 24.5023C35.8459 24.221 35.4644 24.063 35.0665 24.063ZM34.234 30.1725C33.8892 29.9746 33.4801 29.9211 33.096 30.0237C32.7118 30.1262 32.3838 30.3765 32.1835 30.72C32.0349 30.9767 31.9657 31.2717 31.9847 31.5677C32.0037 31.8638 32.1101 32.1475 32.2903 32.3831C32.4706 32.6187 32.7166 32.7955 32.9974 32.8913C33.2781 32.9871 33.581 32.9974 33.8676 32.9211C34.1542 32.8448 34.4118 32.6852 34.6078 32.4625C34.8037 32.2398 34.9292 31.964 34.9685 31.67C35.0077 31.3759 34.9588 31.0769 34.8281 30.8106C34.6974 30.5443 34.4907 30.3213 34.234 30.1725ZM23.2495 12.2505C22.4245 12.2505 21.7495 12.9225 21.7495 13.7505L21.052 24.765L16.546 27.705C16.218 27.9122 15.9829 28.2383 15.89 28.6151C15.7971 28.9918 15.8537 29.3899 16.0478 29.7258C16.242 30.0618 16.5587 30.3095 16.9315 30.4171C17.3043 30.5247 17.7042 30.4838 18.0475 30.303L23.0065 27.789C23.089 27.798 23.1715 27.8145 23.2555 27.8145C23.8523 27.8145 24.4246 27.5774 24.8465 27.1555C25.2685 26.7335 25.5055 26.1612 25.5055 25.5645L24.7555 13.7505C24.7555 12.921 24.0805 12.2505 23.2555 12.2505H23.2495ZM28.4095 34.4955C28.0648 34.6942 27.8132 35.0217 27.7099 35.406C27.6067 35.7902 27.6603 36.1998 27.859 36.5445C28.0578 36.8892 28.3853 37.1409 28.7695 37.2441C29.1538 37.3473 29.5633 37.2937 29.908 37.095C30.2361 36.8878 30.4712 36.5616 30.5641 36.1849C30.657 35.8082 30.6004 35.4101 30.4063 35.0742C30.2121 34.7382 29.8954 34.4905 29.5226 34.3829C29.1498 34.2753 28.7499 34.3162 28.4065 34.497L28.4095 34.4955ZM16.7935 5.39098C15.5395 3.83098 13.639 2.81398 11.4835 2.81398C10.5847 2.81339 9.6945 2.98998 8.86392 3.33364C8.03333 3.67731 7.27863 4.18131 6.64297 4.81684C6.0073 5.45237 5.50313 6.20696 5.15928 7.03747C4.81543 7.86797 4.63865 8.75811 4.63905 9.65698C4.63905 11.0925 5.08455 12.4215 5.83905 13.521C8.49889 9.68176 12.3485 6.82475 16.7935 5.39098ZM40.6585 13.521C41.4115 12.423 41.8585 11.094 41.8585 9.65848C41.8581 7.84347 41.1369 6.10293 39.8533 4.81966C38.5698 3.53639 36.8291 2.81548 35.014 2.81548C32.857 2.81548 30.958 3.83248 29.704 5.39098C34.1486 6.82504 37.9976 9.68202 40.657 13.521H40.6585Z" fill="black"/>
</svg>
