<svg width="57" height="54" viewBox="0 0 57 54" fill="none" xmlns="http://www.w3.org/2000/svg">
<path d="M28.5 39.9375C25.799 39.9375 23.1588 39.1787 20.913 37.7571C18.6672 36.3355 16.9169 34.315 15.8833 31.951C14.8497 29.5869 14.5792 26.9856 15.1062 24.476C15.6331 21.9664 16.9337 19.6611 18.8436 17.8518C20.7534 16.0425 23.1867 14.8103 25.8358 14.3111C28.4849 13.8119 31.2307 14.0681 33.726 15.0473C36.2214 16.0265 38.3542 17.6847 39.8548 19.8123C41.3553 21.9399 42.1562 24.4412 42.1562 27C42.15 30.4294 40.7092 33.7167 38.1495 36.1416C35.5898 38.5666 32.1199 39.9316 28.5 39.9375ZM28.5 17.4375C26.5036 17.4375 24.5521 17.9983 22.8922 19.0491C21.2323 20.0998 19.9386 21.5933 19.1746 23.3406C18.4106 25.0879 18.2107 27.0106 18.6002 28.8656C18.9897 30.7205 19.951 32.4244 21.3626 33.7617C22.7743 35.099 24.5728 36.0098 26.5308 36.3788C28.4888 36.7477 30.5183 36.5584 32.3627 35.8346C34.2071 35.1108 35.7835 33.8852 36.8926 32.3126C38.0018 30.7401 38.5938 28.8913 38.5938 27C38.5875 24.4657 37.522 22.0369 35.6304 20.2449C33.7388 18.4528 31.1751 17.4434 28.5 17.4375ZM28.5 11.25C28.0295 11.2442 27.58 11.0645 27.2473 10.7493C26.9145 10.4341 26.7249 10.0082 26.7188 9.5625V6.1875C26.7188 5.73995 26.9064 5.31072 27.2405 4.99426C27.5745 4.67779 28.0276 4.5 28.5 4.5C28.9724 4.5 29.4255 4.67779 29.7595 4.99426C30.0936 5.31072 30.2812 5.73995 30.2812 6.1875V9.5625C30.2751 10.0082 30.0855 10.4341 29.7527 10.7493C29.42 11.0645 28.9705 11.2442 28.5 11.25ZM28.5 49.5C28.0295 49.4942 27.58 49.3145 27.2473 48.9993C26.9145 48.6841 26.7249 48.2582 26.7188 47.8125V44.4375C26.7188 43.9899 26.9064 43.5607 27.2405 43.2443C27.5745 42.9278 28.0276 42.75 28.5 42.75C28.9724 42.75 29.4255 42.9278 29.7595 43.2443C30.0936 43.5607 30.2812 43.9899 30.2812 44.4375V47.8125C30.2751 48.2582 30.0855 48.6841 29.7527 48.9993C29.42 49.3145 28.9705 49.4942 28.5 49.5ZM50.4688 28.6875H46.9062C46.4338 28.6875 45.9808 28.5097 45.6467 28.1932C45.3127 27.8768 45.125 27.4476 45.125 27C45.125 26.5524 45.3127 26.1232 45.6467 25.8068C45.9808 25.4903 46.4338 25.3125 46.9062 25.3125H50.4688C50.9412 25.3125 51.3942 25.4903 51.7283 25.8068C52.0623 26.1232 52.25 26.5524 52.25 27C52.25 27.4476 52.0623 27.8768 51.7283 28.1932C51.3942 28.5097 50.9412 28.6875 50.4688 28.6875ZM10.0938 28.6875H6.53125C6.05883 28.6875 5.60576 28.5097 5.27172 28.1932C4.93767 27.8768 4.75 27.4476 4.75 27C4.75 26.5524 4.93767 26.1232 5.27172 25.8068C5.60576 25.4903 6.05883 25.3125 6.53125 25.3125H10.0938C10.5662 25.3125 11.0192 25.4903 11.3533 25.8068C11.6873 26.1232 11.875 26.5524 11.875 27C11.875 27.4476 11.6873 27.8768 11.3533 28.1932C11.0192 28.5097 10.5662 28.6875 10.0938 28.6875ZM15.4375 16.3125C14.9793 16.2793 14.553 16.0774 14.25 15.75L11.6612 13.5C11.4913 13.339 11.3564 13.1478 11.2644 12.9374C11.1725 12.727 11.1251 12.5015 11.1251 12.2737C11.1251 12.046 11.1725 11.8205 11.2644 11.6101C11.3564 11.3997 11.4913 11.2085 11.6612 11.0475C11.8312 10.8865 12.033 10.7587 12.2551 10.6716C12.4772 10.5844 12.7152 10.5396 12.9556 10.5396C13.196 10.5396 13.434 10.5844 13.6561 10.6716C13.8782 10.7587 14.08 10.8865 14.25 11.0475L16.625 13.5C16.9171 13.8094 17.0786 14.2099 17.0786 14.625C17.0786 15.0401 16.9171 15.4406 16.625 15.75C16.322 16.0774 15.8957 16.2793 15.4375 16.3125ZM44.08 43.4475C43.846 43.4485 43.6141 43.4053 43.3979 43.3203C43.1818 43.2353 42.9857 43.1103 42.8213 42.9525L40.375 40.5C40.2163 40.1851 40.1645 39.8313 40.2267 39.4874C40.289 39.1434 40.4623 38.8263 40.7228 38.5795C40.9833 38.3327 41.3181 38.1686 41.6811 38.1096C42.0442 38.0505 42.4176 38.0996 42.75 38.25L45.3387 40.5C45.6723 40.8164 45.8597 41.2453 45.8597 41.6925C45.8597 42.1397 45.6723 42.5686 45.3387 42.885C45.1804 43.055 44.9871 43.1926 44.7707 43.2893C44.5542 43.386 44.3192 43.4399 44.08 43.4475ZM41.5625 16.3125C41.1043 16.2793 40.678 16.0774 40.375 15.75C40.0829 15.4406 39.9214 15.0401 39.9214 14.625C39.9214 14.2099 40.0829 13.8094 40.375 13.5L42.75 11.0475C43.0933 10.7223 43.5589 10.5396 44.0444 10.5396C44.5299 10.5396 44.9955 10.7223 45.3387 11.0475C45.682 11.3727 45.8749 11.8138 45.8749 12.2737C45.8749 12.7337 45.682 13.1748 45.3387 13.5L42.75 15.75C42.447 16.0774 42.0207 16.2793 41.5625 16.3125ZM12.92 43.4475C12.686 43.4485 12.4541 43.4053 12.2379 43.3203C12.0218 43.2353 11.8257 43.1103 11.6612 42.9525C11.3277 42.6361 11.1403 42.2072 11.1403 41.76C11.1403 41.3128 11.3277 40.8839 11.6612 40.5675L14.25 38.25C14.5824 38.0996 14.9558 38.0505 15.3189 38.1096C15.6819 38.1686 16.0167 38.3327 16.2772 38.5795C16.5377 38.8263 16.711 39.1434 16.7733 39.4874C16.8355 39.8313 16.7837 40.1851 16.625 40.5L14.25 42.9525C14.0773 43.1186 13.8696 43.2486 13.6405 43.3338C13.4114 43.4191 13.1659 43.4578 12.92 43.4475Z" fill="black"/>
</svg>
