<svg width="48" height="48" viewBox="0 0 48 48" fill="none" xmlns="http://www.w3.org/2000/svg">
<path d="M12.1269 5H13.0129C17.6789 5.69 18.9439 8.338 23.0099 8.338C27.0759 8.338 28.3409 5.69 33.0079 5H33.5099C34.7574 5 35.9928 5.24572 37.1453 5.72314C38.2979 6.20056 39.3452 6.90033 40.2274 7.78249C41.1095 8.66464 41.8093 9.71191 42.2867 10.8645C42.7641 12.0171 43.0099 13.2524 43.0099 14.5V15.126C43.0099 18.029 39.9199 21.343 39.0099 24.483C38.0449 27.817 37.3839 30.543 37.1899 33.394C36.7349 40.075 34.4569 43 32.0099 43C28.3559 43 25.1119 28.025 23.0729 28.025C21.0329 28.025 16.9879 43 14.0099 43C12.1929 43 9.83985 41.925 8.95585 33.394C8.60385 30 8.00985 27.941 7.00985 24.483C6.12985 21.443 3.16185 17.811 3.00985 14.551C2.95252 13.3181 3.14584 12.0863 3.57815 10.9302C4.01045 9.77417 4.67275 8.71778 5.52498 7.82498C6.37722 6.93217 7.40168 6.2215 8.53642 5.73594C9.67116 5.25038 10.8926 5.00002 12.1269 5Z" stroke="black" stroke-width="4"/>
<path d="M14.4922 12.463L31.0112 17.789M14.4922 17.789L31.0112 12.463" stroke="black" stroke-width="4" stroke-linecap="round"/>
</svg>
