<svg width="48" height="48" viewBox="0 0 48 48" fill="none" xmlns="http://www.w3.org/2000/svg">
<g clip-path="url(#clip0_77_253)">
<path d="M28.6154 0C24.3877 0 20.8837 2.38708 18.7495 5.712C18.3508 5.65662 17.9723 5.53846 17.5385 5.53846C12.9194 5.53846 9.23077 8.74154 8.01969 12.9803C3.59262 13.1446 0 16.7649 0 21.2308C0 25.7963 3.74215 29.5385 8.30769 29.5385H37.8462C43.4326 29.5385 48 24.9711 48 19.3846C48 14.6308 44.6363 10.7778 40.2111 9.69231C39.1071 4.20738 34.4123 0 28.6154 0ZM28.6154 3.69231C30.6977 3.68656 32.7052 4.46824 34.2354 5.8806C35.7655 7.29296 36.7051 9.23158 36.8658 11.3077L37.0375 12.8658L38.5385 12.9803C40.1229 13.1428 41.5905 13.888 42.6565 15.0714C43.7225 16.2547 44.311 17.7919 44.3077 19.3846C44.3077 22.9735 41.4351 25.8462 37.8462 25.8462H8.30769C7.70056 25.8498 7.09875 25.733 6.53712 25.5023C5.9755 25.2717 5.46524 24.9318 5.03593 24.5025C4.60662 24.0732 4.26679 23.563 4.03615 23.0013C3.8055 22.4397 3.68863 21.8379 3.69231 21.2308C3.68834 20.5651 3.82929 19.9066 4.10535 19.3008C4.38142 18.6951 4.78599 18.1567 5.291 17.723C5.796 17.2893 6.38934 16.9707 7.02982 16.7894C7.6703 16.608 8.34258 16.5681 9 16.6726L10.9625 17.0197L11.1342 15.0572C11.2833 13.4625 12.0227 11.981 13.2074 10.9032C14.3922 9.82532 15.9368 9.22888 17.5385 9.23077C18.0185 9.23077 18.5169 9.28061 19.0394 9.40431L20.4794 9.74954L21.1163 8.424C21.79 7.00618 22.8524 5.8088 24.18 4.97115C25.5075 4.1335 27.0457 3.69002 28.6154 3.69231ZM38.712 31.0966C36.9582 32.0049 32.9446 33.4708 31.9034 35.1342C31.6521 35.5279 31.481 35.9674 31.4001 36.4274C31.3192 36.8874 31.33 37.3589 31.4319 37.8148C31.5338 38.2706 31.7248 38.7018 31.9939 39.0836C32.263 39.4654 32.6049 39.7902 33 40.0394C34.6597 41.0825 36.7311 40.4585 37.9034 38.8855C38.9465 37.4862 38.7102 34.8628 38.712 31.0966ZM12.8658 32.9428C11.112 33.8511 7.09846 35.3169 6.05723 36.9803C5.8059 37.374 5.63487 37.8135 5.55396 38.2736C5.47305 38.7336 5.48386 39.2051 5.58576 39.6609C5.68767 40.1167 5.87867 40.5479 6.14777 40.9297C6.41688 41.3115 6.75879 41.6363 7.15385 41.8855C8.81354 42.9286 10.8849 42.3046 12.0572 40.7317C13.1003 39.3323 12.864 36.7089 12.8658 32.9428ZM25.7889 38.4812C24.0351 39.3895 20.0215 40.8554 18.9803 42.5188C18.729 42.9125 18.5579 43.352 18.477 43.812C18.3961 44.272 18.4069 44.7435 18.5088 45.1994C18.6107 45.6552 18.8017 46.0864 19.0709 46.4682C19.34 46.85 19.6819 47.1748 20.0769 47.424C21.7366 48.4671 23.808 47.8431 24.9803 46.2702C26.0234 44.8708 25.7871 42.2474 25.7889 38.4812Z" fill="black"/>
</g>
<defs>
<clipPath id="clip0_77_253">
<rect width="48" height="48" fill="white"/>
</clipPath>
</defs>
</svg>
