<svg width="48" height="48" viewBox="0 0 48 48" fill="none" xmlns="http://www.w3.org/2000/svg">
<path d="M22.9141 17.556L21.2686 19.2015L22.9381 20.868L24.5851 19.218L22.9141 17.556ZM25.6471 20.28L23.9971 21.93L25.6651 23.595L27.3166 21.9435L25.6471 20.28ZM28.4011 26.3325L26.7256 24.657L28.3786 23.001L30.0586 24.675L28.4011 26.3325ZM28.3801 20.883L26.7076 19.218L28.3846 17.5425L30.0526 19.2075L28.3801 20.883ZM30.0601 13.746L28.3951 12.075L26.7151 13.755L28.3846 15.42L30.0601 13.746ZM32.7886 16.473L31.1146 18.147L29.4466 16.482L31.1206 14.8065L32.7886 16.473ZM32.1751 19.2075L33.8536 20.88L35.5246 19.209L33.8491 17.5335L32.1751 19.2075ZM25.6531 14.8155L27.3226 16.4805L25.6456 18.159L23.9761 16.494L25.6531 14.8155ZM29.4406 21.9405L31.1191 23.6145L32.7931 21.9405L31.1146 20.268L29.4406 21.9405Z" fill="black"/>
<path d="M18.8916 19.56C18.8948 17.0306 19.9008 14.6056 21.6891 12.8167C23.4775 11.0278 25.9021 10.021 28.4316 10.017C30.9612 10.0198 33.3863 11.026 35.1749 12.8148C36.9634 14.6037 37.9692 17.029 37.9716 19.5585C37.9688 22.0878 36.9628 24.5128 35.1743 26.3013C33.3858 28.0898 30.9609 29.0958 28.4316 29.0985C25.9023 29.0958 23.4774 28.0898 21.6889 26.3013C19.9004 24.5128 18.8944 22.0878 18.8916 19.5585M36.4731 19.5585C36.4731 18.966 36.3981 18.3945 36.2781 17.8395L34.9101 16.4655L35.5266 15.8505C35.2897 15.3961 35.0094 14.9655 34.6896 14.565L33.8481 15.408L32.1801 13.74L32.9841 12.936C32.5541 12.641 32.097 12.3873 31.6191 12.1785L31.1196 12.6795L30.1476 11.7075C29.5926 11.5875 29.0226 11.514 28.4331 11.514C27.8001 11.514 27.1911 11.607 26.6001 11.745L25.6521 12.693L25.1766 12.219C24.6976 12.433 24.2461 12.689 23.8221 12.987L24.5901 13.7565L22.9101 15.4365L22.1151 14.6415C21.8011 15.0455 21.5266 15.4775 21.2916 15.9375L21.8541 16.4955L20.6241 17.7255C20.4846 18.315 20.3931 18.9255 20.3931 19.557C20.3931 19.812 20.4276 20.055 20.4621 20.2995L20.4936 20.541L21.8781 21.9255L21.0606 22.7445C21.2706 23.2265 21.5231 23.6815 21.8181 24.1095L22.9386 22.9875L24.6066 24.6555L23.4471 25.815C23.8471 26.134 24.2751 26.413 24.7311 26.652L25.6671 25.716L27.3411 27.3915L27.2526 27.48L27.3486 27.4935C27.7056 27.546 28.0641 27.5985 28.4346 27.5985C28.7736 27.5985 29.0991 27.5505 29.4246 27.504L29.5551 27.486L29.4606 27.3915L31.1196 25.7325L32.0766 26.6835C32.5356 26.4495 32.9666 26.174 33.3696 25.857L32.1801 24.672L33.8526 22.9995L35.0106 24.1575C35.3076 23.7305 35.5626 23.2785 35.7756 22.8015L34.9131 21.939L36.3816 20.4705L36.4146 20.2065C36.4446 19.9935 36.4746 19.779 36.4746 19.557" fill="black"/>
<path d="M45.2921 16.677C46.5581 14.754 46.8431 12.7155 45.9776 10.947C45.1136 9.165 43.3196 8.1315 41.0096 7.944C41.0246 5.6445 40.1546 3.783 38.4746 2.7765C36.9356 1.842 35.0801 1.8405 33.2081 2.682C32.0771 0.987 30.5186 0.0195 28.7531 0H28.6091C26.7221 0 25.0526 1.08 23.8616 2.943C21.8306 1.917 19.7966 1.854 18.1541 2.886C16.4516 3.9495 15.6101 5.868 15.6821 8.2155C13.3376 8.4165 11.5271 9.4845 10.6571 11.325C9.82907 13.119 10.1621 15.159 11.4716 17.0685C9.67757 18.51 8.77607 20.3595 9.04757 22.3035C9.32207 24.261 10.7156 25.7985 12.8696 26.694C12.1466 28.881 12.3956 30.9285 13.6796 32.415C14.9801 33.915 16.9856 34.4505 19.2746 34.0275C19.8596 36.2475 21.1796 37.8255 23.0681 38.3745C23.5171 38.5025 23.9671 38.5665 24.4181 38.5665C25.3256 38.5665 26.2271 38.2845 27.0911 37.7955V43.317C25.9601 40.551 23.2526 38.5815 20.0861 38.5815H16.9856C16.7441 38.5815 16.5656 38.7765 16.5656 39.0015V39.6315C16.5656 43.2315 19.4906 46.1565 22.9556 46.1865L27.2741 46.2C27.3241 46.2002 27.3737 46.19 27.4196 46.17H30.0941V46.1595C30.1506 46.1853 30.2119 46.1991 30.2741 46.2H33.3791C37.4291 46.2 40.7291 42.975 40.9406 38.985C40.944 38.9334 40.937 38.8817 40.9197 38.833C40.9025 38.7843 40.8755 38.7396 40.8404 38.7016C40.8053 38.6637 40.7628 38.6334 40.7155 38.6125C40.6683 38.5915 40.6173 38.5805 40.5656 38.58L36.2456 38.5935C33.3656 38.6175 30.8606 40.6395 30.0956 43.3875V37.725C31.4111 38.4555 32.8106 38.67 34.1681 38.259C36.0776 37.686 37.3871 36.069 37.9316 33.804C40.1876 34.17 42.1676 33.6105 43.4261 32.115C44.7116 30.5925 44.9246 28.5195 44.1431 26.319C46.2491 25.386 47.5976 23.832 47.8331 21.8865C48.0701 19.932 47.1281 18.0915 45.2936 16.6785M39.4046 24.285C41.3846 26.505 42.1796 28.935 41.1296 30.18C40.0946 31.41 37.5911 31.05 35.0696 29.505C35.5196 32.4465 34.8446 34.92 33.2996 35.385C31.7546 35.85 29.8511 34.185 28.5761 31.515C27.3461 34.23 25.4561 35.94 23.8961 35.49C22.3511 35.04 21.6461 32.595 22.0361 29.67C19.5311 31.275 17.0111 31.68 15.9461 30.45C14.8811 29.22 15.6311 26.805 17.5511 24.555C14.5661 24.525 12.2411 23.49 12.0161 21.885C11.7911 20.28 13.7411 18.66 16.5761 17.82C14.0861 16.185 12.7061 14.04 13.3811 12.585C14.0861 11.085 16.6961 10.785 19.6061 11.715C18.3611 8.94 18.3461 6.3 19.7411 5.43C21.0761 4.59 23.3096 5.655 25.1996 7.83C25.7096 4.995 27.0746 2.9565 28.6661 3C30.1361 3.015 31.3661 4.8165 31.8611 7.365C33.6476 5.4615 35.6561 4.575 36.9161 5.34C38.2961 6.1665 38.3411 8.7015 37.2011 11.4315C40.0361 10.5315 42.5711 10.8015 43.2761 12.2565C43.9811 13.6965 42.6461 15.8565 40.2011 17.5215C43.0661 18.3165 45.0461 19.9215 44.8511 21.5265C44.6561 23.1315 42.3611 24.195 39.4061 24.2865" fill="black"/>
</svg>
