<svg width="40" height="36" viewBox="0 0 40 36" fill="none" xmlns="http://www.w3.org/2000/svg">
<path d="M29.9997 4.5C31.7678 4.5 33.4635 5.13214 34.7137 6.25736C35.964 7.38258 36.6663 8.9087 36.6663 10.5V22.5C36.6663 24.0913 35.964 25.6174 34.7137 26.7426C33.4635 27.8679 31.7678 28.5 29.9997 28.5H22.1263L14.1897 32.7855C13.9507 32.9146 13.6795 32.9877 13.401 32.998C13.1224 33.0084 12.8455 32.9558 12.5954 32.8449C12.3454 32.734 12.1302 32.5684 11.9697 32.3634C11.8091 32.1583 11.7082 31.9202 11.6763 31.671L11.6663 31.5V28.5H9.99967C8.28927 28.5 6.64429 27.9083 5.40499 26.8474C4.16568 25.7865 3.42686 24.3374 3.34134 22.8L3.33301 22.5V10.5C3.33301 8.9087 4.03539 7.38258 5.28563 6.25736C6.53587 5.13214 8.23156 4.5 9.99967 4.5H29.9997ZM25.333 18.429C25.0174 18.1506 24.5918 17.9964 24.1498 18.0003C23.7079 18.0042 23.2858 18.166 22.9763 18.45C22.5884 18.8065 22.1253 19.0897 21.6141 19.283C21.103 19.4764 20.5541 19.576 19.9997 19.576C19.4452 19.576 18.8964 19.4764 18.3852 19.283C17.8741 19.0897 17.411 18.8065 17.023 18.45C16.712 18.1725 16.2922 18.0164 15.8543 18.0153C15.4164 18.0142 14.9956 18.1683 14.6829 18.4442C14.3702 18.7201 14.1907 19.0957 14.1832 19.4897C14.1758 19.8838 14.3409 20.2647 14.643 20.55C15.3413 21.1913 16.1748 21.7008 17.0945 22.0486C18.0143 22.3964 19.002 22.5755 19.9997 22.5755C20.9974 22.5755 21.985 22.3964 22.9048 22.0486C23.8246 21.7008 24.658 21.1913 25.3563 20.55C25.6657 20.2659 25.8371 19.8829 25.8327 19.4852C25.8283 19.0874 25.6486 18.7075 25.333 18.429ZM15.8497 12H15.833C15.391 12 14.9671 12.158 14.6545 12.4393C14.3419 12.7206 14.1663 13.1022 14.1663 13.5C14.1663 13.8978 14.3419 14.2794 14.6545 14.5607C14.9671 14.842 15.391 15 15.833 15H15.8497C16.2917 15 16.7156 14.842 17.0282 14.5607C17.3407 14.2794 17.5163 13.8978 17.5163 13.5C17.5163 13.1022 17.3407 12.7206 17.0282 12.4393C16.7156 12.158 16.2917 12 15.8497 12ZM24.183 12H24.1663C23.7243 12 23.3004 12.158 22.9878 12.4393C22.6753 12.7206 22.4997 13.1022 22.4997 13.5C22.4997 13.8978 22.6753 14.2794 22.9878 14.5607C23.3004 14.842 23.7243 15 24.1663 15H24.183C24.625 15 25.049 14.842 25.3615 14.5607C25.6741 14.2794 25.8497 13.8978 25.8497 13.5C25.8497 13.1022 25.6741 12.7206 25.3615 12.4393C25.049 12.158 24.625 12 24.183 12Z" fill="#096C15"/>
</svg>
