<svg width="73" height="70" viewBox="0 0 73 70" fill="none" xmlns="http://www.w3.org/2000/svg">
<path d="M54.75 35C54.75 39.6413 52.8272 44.0925 49.4047 47.3744C45.9822 50.6563 41.3402 52.5 36.5 52.5C31.6598 52.5 27.0178 50.6563 23.5953 47.3744C20.1728 44.0925 18.25 39.6413 18.25 35C18.25 30.3587 20.1728 25.9075 23.5953 22.6256C27.0178 19.3437 31.6598 17.5 36.5 17.5C41.3402 17.5 45.9822 19.3437 49.4047 22.6256C52.8272 25.9075 54.75 30.3587 54.75 35Z" fill="black"/>
<path fill-rule="evenodd" clip-rule="evenodd" d="M36.5 3.64587C37.105 3.64587 37.6852 3.87634 38.1131 4.28658C38.5409 4.69681 38.7812 5.25321 38.7812 5.83337V8.75004C38.7812 9.3302 38.5409 9.8866 38.1131 10.2968C37.6852 10.7071 37.105 10.9375 36.5 10.9375C35.895 10.9375 35.3147 10.7071 34.8869 10.2968C34.4591 9.8866 34.2187 9.3302 34.2187 8.75004V5.83337C34.2187 5.25321 34.4591 4.69681 34.8869 4.28658C35.3147 3.87634 35.895 3.64587 36.5 3.64587ZM13.3803 12.8305C13.808 12.4208 14.3878 12.1907 14.9924 12.1907C15.5969 12.1907 16.1767 12.4208 16.6044 12.8305L17.7998 13.9738C18.2156 14.3862 18.4458 14.9386 18.4409 15.5122C18.436 16.0858 18.1963 16.6345 17.7735 17.0403C17.3508 17.4461 16.7787 17.6764 16.1806 17.6816C15.5824 17.6869 15.0061 17.4667 14.5756 17.0684L13.3803 15.9221C12.9531 15.512 12.7131 14.956 12.7131 14.3763C12.7131 13.7966 12.9531 13.2406 13.3803 12.8305ZM59.6197 12.8305C60.0469 13.2406 60.2868 13.7966 60.2868 14.3763C60.2868 14.956 60.0469 15.512 59.6197 15.9221L58.4243 17.0684C57.9919 17.4548 57.4199 17.6651 56.8289 17.6551C56.2379 17.6451 55.674 17.4156 55.256 17.0148C54.8381 16.614 54.5987 16.0733 54.5882 15.5066C54.5778 14.9399 54.7972 14.3914 55.2001 13.9767L56.3955 12.8305C56.8233 12.4208 57.4031 12.1907 58.0076 12.1907C58.6121 12.1907 59.192 12.4208 59.6197 12.8305ZM3.80206 35C3.80206 34.4199 4.04241 33.8635 4.47023 33.4532C4.89804 33.043 5.47829 32.8125 6.08331 32.8125H9.12498C9.73 32.8125 10.3103 33.043 10.7381 33.4532C11.1659 33.8635 11.4062 34.4199 11.4062 35C11.4062 35.5802 11.1659 36.1366 10.7381 36.5468C10.3103 36.9571 9.73 37.1875 9.12498 37.1875H6.08331C5.47829 37.1875 4.89804 36.9571 4.47023 36.5468C4.04241 36.1366 3.80206 35.5802 3.80206 35ZM61.5937 35C61.5937 34.4199 61.8341 33.8635 62.2619 33.4532C62.6897 33.043 63.27 32.8125 63.875 32.8125H66.9166C67.5217 32.8125 68.1019 33.043 68.5297 33.4532C68.9576 33.8635 69.1979 34.4199 69.1979 35C69.1979 35.5802 68.9576 36.1366 68.5297 36.5468C68.1019 36.9571 67.5217 37.1875 66.9166 37.1875H63.875C63.27 37.1875 62.6897 36.9571 62.2619 36.5468C61.8341 36.1366 61.5937 35.5802 61.5937 35ZM55.2001 52.9317C55.6279 52.5221 56.2077 52.292 56.8122 52.292C57.4168 52.292 57.9966 52.5221 58.4243 52.9317L59.6197 54.078C59.8438 54.2782 60.0236 54.5197 60.1483 54.7881C60.273 55.0564 60.34 55.346 60.3454 55.6398C60.3508 55.9335 60.2945 56.2252 60.1797 56.4976C60.065 56.77 59.8942 57.0174 59.6776 57.2252C59.461 57.4329 59.2029 57.5966 58.9189 57.7066C58.6348 57.8167 58.3306 57.8707 58.0243 57.8655C57.718 57.8603 57.4159 57.796 57.1361 57.6765C56.8562 57.5569 56.6044 57.3845 56.3955 57.1696L55.2001 56.0234C54.7729 55.6132 54.533 55.0572 54.533 54.4775C54.533 53.8978 54.7729 53.3419 55.2001 52.9317ZM17.7998 52.9317C18.227 53.3419 18.467 53.8978 18.467 54.4775C18.467 55.0572 18.227 55.6132 17.7998 56.0234L16.6044 57.1696C16.3956 57.3845 16.1437 57.5569 15.8639 57.6765C15.5841 57.796 15.282 57.8603 14.9757 57.8655C14.6694 57.8707 14.3651 57.8167 14.0811 57.7066C13.797 57.5966 13.539 57.4329 13.3224 57.2252C13.1057 57.0174 12.935 56.77 12.8202 56.4976C12.7055 56.2252 12.6492 55.9335 12.6546 55.6398C12.66 55.346 12.727 55.0564 12.8517 54.7881C12.9764 54.5197 13.1561 54.2782 13.3803 54.078L14.5726 52.9317C14.7845 52.7284 15.036 52.5672 15.3129 52.4572C15.5897 52.3471 15.8865 52.2905 16.1862 52.2905C16.4859 52.2905 16.7827 52.3471 17.0595 52.4572C17.3364 52.5672 17.588 52.7284 17.7998 52.9317ZM36.5 59.0625C37.105 59.0625 37.6852 59.293 38.1131 59.7032C38.5409 60.1135 38.7812 60.6699 38.7812 61.25V64.1667C38.7812 64.7469 38.5409 65.3033 38.1131 65.7135C37.6852 66.1237 37.105 66.3542 36.5 66.3542C35.895 66.3542 35.3147 66.1237 34.8869 65.7135C34.4591 65.3033 34.2187 64.7469 34.2187 64.1667V61.25C34.2187 60.6699 34.4591 60.1135 34.8869 59.7032C35.3147 59.293 35.895 59.0625 36.5 59.0625Z" fill="black"/>
</svg>
