<svg width="28" height="29" viewBox="0 0 28 29" fill="none" xmlns="http://www.w3.org/2000/svg">
<path d="M7.77877 9.22794C7.65408 10.6054 7.56658 13.0433 8.35189 14.0809C8.35189 14.0809 7.98221 11.4029 11.2963 8.04302C12.6306 6.69044 12.9391 4.85076 12.4731 3.47099C12.2085 2.68935 11.725 2.04365 11.305 1.59279C11.06 1.32771 11.2481 0.890444 11.6047 0.906304C13.7616 1.00599 17.2572 1.62677 18.7425 5.4874C19.3944 7.18208 19.4425 8.93341 19.1319 10.7142C18.935 11.8515 18.235 14.38 19.8319 14.6904C20.9716 14.9124 21.5228 13.9744 21.77 13.2993C21.8728 13.0183 22.2294 12.9481 22.4219 13.1724C24.3469 15.4403 24.511 18.1115 24.1128 20.4111C23.3428 24.8562 18.9963 28.0915 14.6781 28.0915C9.28377 28.0915 4.98971 24.8947 3.87627 19.1083C3.42783 16.7725 3.65533 12.1506 7.13346 8.8881C7.39158 8.64341 7.81377 8.86091 7.77877 9.22794Z" fill="url(#paint0_radial_190_1207)"/>
<path d="M16.6491 17.5405C14.6607 14.8897 15.551 11.8651 16.0388 10.6598C16.1044 10.5012 15.9294 10.3516 15.7916 10.4491C14.9363 11.0517 13.1841 12.47 12.3682 14.466C11.2635 17.1644 11.3422 18.4852 11.9963 20.0984C12.39 21.0703 11.9328 21.2765 11.7032 21.3127C11.48 21.349 11.2744 21.1949 11.1103 21.0341C10.6385 20.5647 10.3021 19.9684 10.1391 19.3122C10.1041 19.1717 9.9269 19.1332 9.84596 19.2488C9.23346 20.1255 8.91628 21.5325 8.90097 22.5271C8.85284 25.6016 11.305 28.0938 14.2713 28.0938C18.0097 28.0938 20.7332 23.8117 18.585 20.232C17.9616 19.1898 17.3753 18.5079 16.6491 17.5405Z" fill="url(#paint1_radial_190_1207)"/>
<defs>
<radialGradient id="paint0_radial_190_1207" cx="0" cy="0" r="1" gradientUnits="userSpaceOnUse" gradientTransform="translate(13.6097 28.162) rotate(-179.742) scale(15.4411 26.2405)">
<stop offset="0.314" stop-color="#FF9800"/>
<stop offset="0.662" stop-color="#FF6D00"/>
<stop offset="0.972" stop-color="#F44336"/>
</radialGradient>
<radialGradient id="paint1_radial_190_1207" cx="0" cy="0" r="1" gradientUnits="userSpaceOnUse" gradientTransform="translate(14.4769 12.2476) rotate(90.5588) scale(16.733 12.1587)">
<stop offset="0.214" stop-color="#FFF176"/>
<stop offset="0.328" stop-color="#FFF27D"/>
<stop offset="0.487" stop-color="#FFF48F"/>
<stop offset="0.672" stop-color="#FFF7AD"/>
<stop offset="0.793" stop-color="#FFF9C4"/>
<stop offset="0.822" stop-color="#FFF8BD" stop-opacity="0.804"/>
<stop offset="0.863" stop-color="#FFF6AB" stop-opacity="0.529"/>
<stop offset="0.91" stop-color="#FFF38D" stop-opacity="0.209"/>
<stop offset="0.941" stop-color="#FFF176" stop-opacity="0"/>
</radialGradient>
</defs>
</svg>
