<svg width="48" height="48" viewBox="0 0 48 48" fill="none" xmlns="http://www.w3.org/2000/svg">
<path d="M39 22.5C38.9991 20.8898 38.5662 19.3093 37.7464 17.9234C36.9267 16.5375 35.7502 15.3969 34.3395 14.6205C35.4025 13.5117 35.9972 12.036 36 10.5H33C33 11.2956 32.6839 12.0587 32.1213 12.6213C31.5587 13.1839 30.7956 13.5 30 13.5C27.6426 13.5031 25.3804 14.4304 23.6991 16.0828C22.0178 17.7353 21.0515 19.981 21.0075 22.338C19.0843 20.3792 18.0047 17.7451 18 15C17.9961 13.6734 17.5521 12.3856 16.7378 11.3384C15.9235 10.2911 14.7847 9.54365 13.5 9.213V6H10.5V9.213C9.21528 9.54365 8.07654 10.2911 7.2622 11.3384C6.44787 12.3856 6.00395 13.6734 6 15V22.5H3V24C3 29.5695 5.21249 34.911 9.15076 38.8492C13.089 42.7875 18.4305 45 24 45C29.5695 45 34.911 42.7875 38.8492 38.8492C42.7875 34.911 45 29.5695 45 24V22.5H39ZM30 16.5C31.5907 16.502 33.1157 17.1348 34.2404 18.2596C35.3652 19.3843 35.998 20.9093 36 22.5H24C24.002 20.9093 24.6348 19.3843 25.7596 18.2596C26.8843 17.1348 28.4093 16.502 30 16.5ZM9 15C9 14.2044 9.31607 13.4413 9.87868 12.8787C10.4413 12.3161 11.2044 12 12 12C12.7956 12 13.5587 12.3161 14.1213 12.8787C14.6839 13.4413 15 14.2044 15 15C15.0068 17.6723 15.8066 20.2826 17.298 22.5H9V15ZM24 42C19.4875 41.994 15.1414 40.2958 11.8204 37.2408C8.49931 34.1858 6.44489 29.9963 6.063 25.5H41.9385C41.5566 29.9965 39.502 34.1863 36.1806 37.2413C32.8592 40.2963 28.5127 41.9944 24 42Z" fill="black"/>
</svg>
