<svg width="36" height="35" viewBox="0 0 36 35" fill="none" xmlns="http://www.w3.org/2000/svg">
<path fill-rule="evenodd" clip-rule="evenodd" d="M2.61401 8.62996C4.17001 7.02196 5.72601 6.48596 7.80001 7.55796C9.66801 8.52296 10.695 8.61896 11.638 8.62896C12.621 8.61896 13.69 8.52296 15.636 7.55796C17.796 6.48596 19.416 7.02196 21.037 8.62996C22.947 10.526 23.537 12.5 23.738 13.991C23.7613 14.111 23.7823 14.231 23.801 14.351C23.1563 14.5391 22.5793 14.9088 22.1388 15.4158C21.6983 15.9229 21.413 16.5459 21.3169 17.2106C21.2208 17.8754 21.3179 18.5537 21.5966 19.1648C21.8754 19.7759 22.324 20.2938 22.889 20.657L22.81 20.86C22.414 20.5796 21.964 20.3846 21.4885 20.2875C21.0131 20.1903 20.5227 20.1931 20.0484 20.2956C19.5741 20.3981 19.1264 20.5981 18.7335 20.8829C18.3406 21.1677 18.0113 21.5311 17.7663 21.9499C17.5214 22.3688 17.3663 22.8341 17.3107 23.3161C17.2552 23.7982 17.3005 24.2865 17.4438 24.7501C17.5871 25.2137 17.8252 25.6424 18.143 26.0091C18.4609 26.3758 18.8514 26.6723 19.29 26.88C19.1953 26.9973 19.103 27.1076 19.013 27.211C18.178 28.08 17.228 28.637 16.198 28.467C12.958 27.93 12.418 27.93 11.878 27.93H11.408C10.89 27.93 10.371 27.93 7.26001 28.467C4.77001 28.895 2.77001 24.714 1.77801 22.571C0.218012 19.208 -0.092988 15.771 0.021012 13.991C0.214012 12.499 0.781013 10.526 2.61401 8.63096" fill="black"/>
<path fill-rule="evenodd" clip-rule="evenodd" d="M30.8449 10.09C31.9682 10.493 32.8854 11.3257 33.3948 12.405C33.9041 13.4843 33.9639 14.7216 33.5609 15.845C33.5283 15.9336 33.4859 16.0146 33.4339 16.088C34.2503 16.7898 34.7879 17.761 34.9494 18.8253C35.1108 19.8897 34.8854 20.9766 34.3139 21.889C34.0334 22.3365 33.6763 22.7312 33.2589 23.055C33.2729 23.2016 33.2799 23.35 33.2799 23.5C33.2804 24.2471 33.0948 24.9825 32.7399 25.64C33.2972 25.9412 33.7847 26.3568 34.1703 26.8594C34.5559 27.362 34.8311 27.9404 34.9778 28.5567C35.1245 29.173 35.1394 29.8133 35.0215 30.4358C34.9036 31.0582 34.6557 31.6488 34.2938 32.1688C33.932 32.6888 33.4644 33.1266 32.9218 33.4534C32.3791 33.7803 31.7735 33.9889 31.1446 34.0656C30.5158 34.1422 29.8778 34.0852 29.2725 33.8983C28.6672 33.7114 28.1081 33.3988 27.6319 32.981C26.8715 33.6045 25.9277 33.9618 24.9449 33.9981C23.9622 34.0345 22.9945 33.7479 22.1901 33.1822C21.3857 32.6165 20.7887 31.8028 20.4905 30.8657C20.1923 29.9285 20.2093 28.9195 20.5389 27.993C19.389 27.9311 18.3065 27.4307 17.5144 26.5948C16.7222 25.7589 16.2807 24.6511 16.2807 23.4995C16.2807 22.3479 16.7222 21.2401 17.5144 20.4042C18.3065 19.5683 19.389 19.0679 20.5389 19.006C20.2903 18.3063 20.2188 17.5559 20.3306 16.8218C20.4424 16.0877 20.7341 15.3927 21.1798 14.7987C21.6254 14.2048 22.2111 13.7303 22.8847 13.4177C23.5582 13.1051 24.2986 12.964 25.0399 13.007C25.0493 12.9396 25.0659 12.8723 25.0899 12.805C25.4932 11.6819 26.326 10.7649 27.4052 10.2558C28.4845 9.74661 29.7217 9.68698 30.8449 10.09ZM28.8619 31.397C29.1303 31.6559 29.4533 31.8516 29.8071 31.9695C30.1609 32.0875 30.5366 32.1248 30.9067 32.0787C31.2768 32.0326 31.6319 31.9043 31.946 31.7032C32.26 31.5021 32.5251 31.2332 32.7218 30.9164C32.9185 30.5995 33.0418 30.2426 33.0827 29.8719C33.1236 29.5012 33.081 29.1261 32.9581 28.774C32.8352 28.4218 32.6351 28.1017 32.3724 27.837C32.1097 27.5722 31.7911 27.3696 31.4399 27.244C31.4059 27.2318 31.3725 27.2178 31.3399 27.202C30.6749 27.662 29.8799 27.948 29.0219 27.994C29.1889 28.464 29.2799 28.972 29.2799 29.5C29.2799 30.178 29.1299 30.82 28.8619 31.397ZM29.0219 19.007C29.7169 19.0442 30.3938 19.2421 30.9994 19.5851C31.605 19.9282 32.1227 20.407 32.5119 20.984C32.7494 20.6621 32.9061 20.288 32.9689 19.893C33.0427 19.4291 32.9843 18.9539 32.8004 18.5217C32.6166 18.0895 32.3147 17.7179 31.9294 17.4493C31.544 17.1808 31.0909 17.0262 30.6217 17.0034C30.1526 16.9805 29.6866 17.0902 29.2769 17.32C29.3002 17.8931 29.2136 18.4664 29.0219 19.007ZM28.7389 15.358C29.6696 14.9625 30.7063 14.8921 31.6819 15.158C31.9022 14.5339 31.866 13.848 31.5814 13.2506C31.2968 12.6532 30.7869 12.193 30.1635 11.9709C29.5401 11.7488 28.8541 11.7829 28.2558 12.0658C27.6576 12.3487 27.1959 12.8572 26.9719 13.48L26.9429 13.552C27.703 13.9685 28.3267 14.5956 28.7389 15.358ZM24.7799 15C24.1169 15 23.481 15.2634 23.0122 15.7322C22.5433 16.201 22.2799 16.8369 22.2799 17.5C22.2799 18.163 22.5433 18.7989 23.0122 19.2677C23.481 19.7366 24.1169 20 24.7799 20C25.443 20 26.0789 19.7366 26.5477 19.2677C27.0166 18.7989 27.2799 18.163 27.2799 17.5C27.2799 16.8369 27.0166 16.201 26.5477 15.7322C26.0789 15.2634 25.443 15 24.7799 15ZM20.7799 21C20.1169 21 19.481 21.2634 19.0122 21.7322C18.5433 22.201 18.2799 22.8369 18.2799 23.5C18.2799 24.163 18.5433 24.7989 19.0122 25.2677C19.481 25.7366 20.1169 26 20.7799 26C21.443 26 22.0789 25.7366 22.5477 25.2677C23.0166 24.7989 23.2799 24.163 23.2799 23.5C23.2799 22.8369 23.0166 22.201 22.5477 21.7322C22.0789 21.2634 21.443 21 20.7799 21ZM26.2799 23.5C26.2799 22.8369 26.5433 22.201 27.0122 21.7322C27.481 21.2634 28.1169 21 28.7799 21C29.443 21 30.0789 21.2634 30.5477 21.7322C31.0166 22.201 31.2799 22.8369 31.2799 23.5C31.2799 24.163 31.0166 24.7989 30.5477 25.2677C30.0789 25.7366 29.443 26 28.7799 26C28.1169 26 27.481 25.7366 27.0122 25.2677C26.5433 24.7989 26.2799 24.163 26.2799 23.5ZM24.7799 27C24.1169 27 23.481 27.2634 23.0122 27.7322C22.5433 28.201 22.2799 28.8369 22.2799 29.5C22.2799 30.163 22.5433 30.7989 23.0122 31.2677C23.481 31.7366 24.1169 32 24.7799 32C25.443 32 26.0789 31.7366 26.5477 31.2677C27.0166 30.7989 27.2799 30.163 27.2799 29.5C27.2799 28.8369 27.0166 28.201 26.5477 27.7322C26.0789 27.2634 25.443 27 24.7799 27ZM0.564941 0.000976562H1.69794C4.53794 0.000976562 7.21194 1.27798 9.16394 2.97298C9.79841 3.52197 10.3736 4.136 10.8799 4.80498V2.56598C10.8799 2.30076 10.9853 2.04641 11.1728 1.85887C11.3604 1.67133 11.6147 1.56598 11.8799 1.56598C12.1452 1.56598 12.3995 1.67133 12.587 1.85887C12.7746 2.04641 12.8799 2.30076 12.8799 2.56598V9.16598C12.88 9.31703 12.8458 9.46613 12.78 9.60208C12.7142 9.73804 12.6185 9.85733 12.4999 9.95098V9.99998H12.4319C12.2681 10.1091 12.0755 10.1672 11.8786 10.1668C11.6818 10.1664 11.4894 10.1077 11.3259 9.99798C8.88594 9.95398 6.43394 9.00498 4.50394 7.48198C2.52794 5.92198 1.02794 3.70198 0.705941 1.12398L0.564941 0.000976562ZM10.3109 7.91098C9.95694 6.81998 9.11494 5.57898 7.85294 4.48298C6.49294 3.30298 4.77294 2.40398 2.96894 2.10698C3.45194 3.56898 4.44194 4.88598 5.74294 5.91298C7.07594 6.96398 8.68994 7.67198 10.3109 7.91098Z" fill="black"/>
<path fill-rule="evenodd" clip-rule="evenodd" d="M30.968 1.14404L31.15 2.26204C31.605 5.06504 30.773 7.91004 29.412 10.108C28.074 12.27 26.078 14.028 23.997 14.366L23.01 14.526L22.85 13.54C22.45 11.075 22.992 8.43004 24.214 6.23004C25.436 4.03004 27.389 2.19404 29.881 1.46304L30.968 1.14404ZM29.274 3.85404C27.909 4.56604 26.767 5.75404 25.962 7.20204C25.138 8.68604 24.696 10.392 24.721 12.032C25.741 11.507 26.831 10.477 27.711 9.05504C28.659 7.52504 29.27 5.68204 29.275 3.85504" fill="black"/>
</svg>
