<svg width="77" height="76" viewBox="0 0 77 76" fill="none" xmlns="http://www.w3.org/2000/svg">
<g filter="url(#filter0_ddddd_67_183)">
<path d="M24.0304 62.8126C17.377 59.7607 12.0222 54.6954 8.83549 48.4391C5.6488 42.1829 4.81737 35.1031 6.47618 28.3493C8.135 21.5955 12.1867 15.5643 17.9733 11.2351C23.7599 6.90583 30.9416 4.53276 38.3524 4.50117C45.7632 4.46959 52.9678 6.78135 58.7963 11.0611C64.6249 15.3408 68.7352 21.3372 70.4598 28.0766C72.1844 34.8159 71.422 41.9025 68.2964 48.1857C65.1709 54.4689 59.8657 59.5796 53.2423 62.6881" stroke="black" stroke-width="0.5" stroke-linecap="round" stroke-linejoin="round"/>
<path d="M51.0382 57.909L47.8459 64.455L54.6572 67.5" stroke="black" stroke-width="0.5" stroke-linecap="round" stroke-linejoin="round"/>
<path d="M40.6031 21.6135C42.561 21.6135 44.1483 20.1293 44.1483 18.2985C44.1483 16.4677 42.561 14.9835 40.6031 14.9835C38.6451 14.9835 37.0579 16.4677 37.0579 18.2985C37.0579 20.1293 38.6451 21.6135 40.6031 21.6135Z" stroke="black" stroke-width="0.5" stroke-linecap="round" stroke-linejoin="round"/>
<path d="M31.6069 45.333L26.9244 50.6655C24.6817 53.0925 27.9189 55.221 30.2931 53.121L34.8794 47.718L36.3841 42.438L38.8048 44.7L40.4186 52.5105C41.4854 54.684 44.9552 54.5655 44.8413 51.7695L42.4511 43.4235L39.023 37.8735L40.9432 31.176L43.0847 31.713C43.0548 31.9417 43.0977 32.1736 43.2081 32.3796C43.3186 32.5856 43.4916 32.7566 43.7056 32.871C44.4515 33.243 49.8142 34.779 49.8142 34.779C53.1878 35.748 53.568 32.5725 50.8409 31.833L46.3765 30.7125L44.1659 27.2715L40.5742 24.2625L35.0832 24.1425L27.3222 28.524L24.4395 35.727C23.8027 37.74 26.8891 38.2635 27.7425 36.699C28.1564 36.012 30.2418 31.371 30.2418 31.371L34.7719 29.268L32.5566 38.769L31.6069 45.333Z" stroke="black" stroke-width="0.5" stroke-linecap="round" stroke-linejoin="round"/>
</g>
<defs>
<filter id="filter0_ddddd_67_183" x="-4" y="0" width="85" height="80" filterUnits="userSpaceOnUse" color-interpolation-filters="sRGB">
<feFlood flood-opacity="0" result="BackgroundImageFix"/>
<feColorMatrix in="SourceAlpha" type="matrix" values="0 0 0 0 0 0 0 0 0 0 0 0 0 0 0 0 0 0 127 0" result="hardAlpha"/>
<feOffset dy="4"/>
<feGaussianBlur stdDeviation="2"/>
<feComposite in2="hardAlpha" operator="out"/>
<feColorMatrix type="matrix" values="0 0 0 0 0 0 0 0 0 0 0 0 0 0 0 0 0 0 0.25 0"/>
<feBlend mode="normal" in2="BackgroundImageFix" result="effect1_dropShadow_67_183"/>
<feColorMatrix in="SourceAlpha" type="matrix" values="0 0 0 0 0 0 0 0 0 0 0 0 0 0 0 0 0 0 127 0" result="hardAlpha"/>
<feOffset dy="4"/>
<feGaussianBlur stdDeviation="2"/>
<feComposite in2="hardAlpha" operator="out"/>
<feColorMatrix type="matrix" values="0 0 0 0 0 0 0 0 0 0 0 0 0 0 0 0 0 0 0.25 0"/>
<feBlend mode="normal" in2="effect1_dropShadow_67_183" result="effect2_dropShadow_67_183"/>
<feColorMatrix in="SourceAlpha" type="matrix" values="0 0 0 0 0 0 0 0 0 0 0 0 0 0 0 0 0 0 127 0" result="hardAlpha"/>
<feOffset dy="4"/>
<feGaussianBlur stdDeviation="2"/>
<feComposite in2="hardAlpha" operator="out"/>
<feColorMatrix type="matrix" values="0 0 0 0 0 0 0 0 0 0 0 0 0 0 0 0 0 0 0.25 0"/>
<feBlend mode="normal" in2="effect2_dropShadow_67_183" result="effect3_dropShadow_67_183"/>
<feColorMatrix in="SourceAlpha" type="matrix" values="0 0 0 0 0 0 0 0 0 0 0 0 0 0 0 0 0 0 127 0" result="hardAlpha"/>
<feOffset dy="4"/>
<feGaussianBlur stdDeviation="2"/>
<feComposite in2="hardAlpha" operator="out"/>
<feColorMatrix type="matrix" values="0 0 0 0 0 0 0 0 0 0 0 0 0 0 0 0 0 0 0.25 0"/>
<feBlend mode="normal" in2="effect3_dropShadow_67_183" result="effect4_dropShadow_67_183"/>
<feColorMatrix in="SourceAlpha" type="matrix" values="0 0 0 0 0 0 0 0 0 0 0 0 0 0 0 0 0 0 127 0" result="hardAlpha"/>
<feOffset dy="4"/>
<feGaussianBlur stdDeviation="2"/>
<feComposite in2="hardAlpha" operator="out"/>
<feColorMatrix type="matrix" values="0 0 0 0 0 0 0 0 0 0 0 0 0 0 0 0 0 0 0.25 0"/>
<feBlend mode="normal" in2="effect4_dropShadow_67_183" result="effect5_dropShadow_67_183"/>
<feBlend mode="normal" in="SourceGraphic" in2="effect5_dropShadow_67_183" result="shape"/>
</filter>
</defs>
</svg>
