<svg width="70" height="70" viewBox="0 0 70 70" fill="none" xmlns="http://www.w3.org/2000/svg">
<path d="M17.5 2.1875C17.5 1.60734 17.2695 1.05094 16.8593 0.640704C16.4491 0.230468 15.8927 0 15.3125 0C14.7323 0 14.1759 0.230468 13.7657 0.640704C13.3555 1.05094 13.125 1.60734 13.125 2.1875V4.375H8.75C6.42936 4.375 4.20376 5.29687 2.56282 6.93782C0.921872 8.57876 0 10.8044 0 13.125L0 17.5H70V13.125C70 10.8044 69.0781 8.57876 67.4372 6.93782C65.7962 5.29687 63.5706 4.375 61.25 4.375H56.875V2.1875C56.875 1.60734 56.6445 1.05094 56.2343 0.640704C55.8241 0.230468 55.2677 0 54.6875 0C54.1073 0 53.5509 0.230468 53.1407 0.640704C52.7305 1.05094 52.5 1.60734 52.5 2.1875V4.375H17.5V2.1875ZM41.1338 44.8263C43.8681 44.8263 46.3138 42.7088 46.3138 39.6637C46.3138 36.0238 44.0081 34.2825 41.2387 34.2825C38.675 34.2825 36.1287 35.9756 36.1287 39.5762C36.1287 43.1506 38.5044 44.8263 41.1338 44.8263Z" fill="black"/>
<path d="M70 61.25V21.875H0V61.25C0 63.5706 0.921872 65.7962 2.56282 67.4372C4.20376 69.0781 6.42936 70 8.75 70H61.25C63.5706 70 65.7962 69.0781 67.4372 67.4372C69.0781 65.7962 70 63.5706 70 61.25ZM40.845 55.9562C35.9888 55.9562 33.6 52.6006 33.3944 49.8006H36.3825C36.5706 51.4194 38.0756 53.3881 40.9806 53.3881C44.6731 53.3881 46.6725 49.6781 46.69 43.9206H46.5719C45.9025 45.7319 43.785 47.3769 40.5213 47.3769C36.7938 47.3769 33.1888 44.7081 33.1888 39.6331C33.1888 34.6588 36.9994 31.7188 41.0506 31.7188C46.1781 31.7188 49.595 34.93 49.595 43.3913C49.595 51.2881 46.3488 55.9519 40.845 55.9519V55.9562ZM28.2013 32.1781V55.5056H25.2437V35.3456H25.1912C23.9225 36.0281 21.3281 37.6206 19.6875 38.745V35.7C21.531 34.4135 23.4492 33.2375 25.4319 32.1781H28.2013Z" fill="black"/>
</svg>
